<svg width="40" height="40" viewBox="0 0 40 40" fill="none" xmlns="http://www.w3.org/2000/svg">
<path d="M20 0C22.7083 0 25.2965 0.528846 27.7644 1.58654C30.2324 2.64423 32.3598 4.06651 34.1466 5.85337C35.9335 7.64022 37.3558 9.76763 38.4135 12.2356C39.4712 14.7035 40 17.2917 40 20C40 22.7083 39.4712 25.3005 38.4135 27.7764C37.3558 30.2524 35.9335 32.3798 34.1466 34.1587C32.3598 35.9375 30.2324 37.3558 27.7644 38.4135C25.2965 39.4712 22.7083 40 20 40C17.2917 40 14.7035 39.4712 12.2356 38.4135C9.76763 37.3558 7.64022 35.9375 5.85337 34.1587C4.06651 32.3798 2.64423 30.2524 1.58654 27.7764C0.528846 25.3005 0 22.7083 0 20C0 17.2917 0.528846 14.7035 1.58654 12.2356C2.64423 9.76763 4.06651 7.64022 5.85337 5.85337C7.64022 4.06651 9.76763 2.64423 12.2356 1.58654C14.7035 0.528846 17.2917 0 20 0ZM9.23077 15.3846C9.23077 16.234 9.53125 16.9591 10.1322 17.5601C10.7332 18.1611 11.4583 18.4615 12.3077 18.4615C13.1571 18.4615 13.8822 18.1611 14.4832 17.5601C15.0841 16.9591 15.3846 16.234 15.3846 15.3846C15.3846 14.5353 15.0841 13.8101 14.4832 13.2091C13.8822 12.6082 13.1571 12.3077 12.3077 12.3077C11.4583 12.3077 10.7332 12.6082 10.1322 13.2091C9.53125 13.8101 9.23077 14.5353 9.23077 15.3846ZM20 32.3077C22.1955 32.3077 24.1466 31.5905 25.8534 30.1562C27.5601 28.722 28.6859 26.883 29.2308 24.6394H10.7692C11.3141 26.899 12.4359 28.742 14.1346 30.1683C15.8333 31.5946 17.7885 32.3077 20 32.3077ZM27.6923 18.4615C28.5417 18.4615 29.2668 18.1611 29.8678 17.5601C30.4688 16.9591 30.7692 16.234 30.7692 15.3846C30.7692 14.5353 30.4688 13.8101 29.8678 13.2091C29.2668 12.6082 28.5417 12.3077 27.6923 12.3077C26.8429 12.3077 26.1178 12.6082 25.5168 13.2091C24.9159 13.8101 24.6154 14.5353 24.6154 15.3846C24.6154 16.234 24.9159 16.9591 25.5168 17.5601C26.1178 18.1611 26.8429 18.4615 27.6923 18.4615Z" fill="#2F80ED"/>
</svg>
