<svg width="50" height="50" viewBox="0 0 50 50" fill="none" xmlns="http://www.w3.org/2000/svg">
<path d="M18.75 7.8125V20.3125H23.4375V23.4375H7.8125V29.6875H3.125V42.1875H15.625V29.6875H10.9375V26.5625H23.4375V29.6875H18.75V42.1875H31.25V29.6875H26.5625V26.5625H39.0625V29.6875H34.375V42.1875H46.875V29.6875H42.1875V23.4375H26.5625V20.3125H31.25V7.8125H18.75ZM21.875 10.9375H28.125V17.1875H21.875V10.9375ZM6.25 32.8125H12.5V39.0625H6.25V32.8125ZM21.875 32.8125H28.125V39.0625H21.875V32.8125ZM37.5 32.8125H43.75V39.0625H37.5V32.8125Z" fill="#2F80ED"/>
</svg>
